<?xml version="1.0" encoding="UTF-8"?>
<svg id="COLOR" xmlns="http://www.w3.org/2000/svg" viewBox="0 0 42.87 9.86">
  <defs>
    <style>
      .cls-1 {
        fill: #FFF;
      }
    </style>
  </defs>
  <g id="FIERO">
    <path class="cls-1" d="m32.13,3.97v-.43c0-.13-.15-.22-.46-.25h-2.35v.94h2.3c.27,0,.44-.08.51-.25m1.15,1.64l1.45,2.04-.03.03h-2.69c-.07-.06-.55-.73-1.43-1.99h-1.24s-.03.01-.03.01v1.96l-.03.03h-2.55l-.03-.03V1.87l.03-.03h6.17c.52,0,.94.18,1.25.53.16.19.24.47.24.84v1.09c0,.65-.37,1.09-1.11,1.31"/>
    <polygon class="cls-1" points="15.46 1.85 15.43 1.88 15.43 7.66 15.46 7.68 18 7.68 18.03 7.66 18.03 1.88 18 1.85 15.46 1.85"/>
    <polygon class="cls-1" points="8.09 1.84 8.06 1.87 8.06 7.66 8.09 7.68 10.65 7.68 10.68 7.66 10.68 5.28 14.32 5.28 14.35 5.26 14.35 3.89 14.32 3.86 10.68 3.86 10.68 3.1 14.68 3.1 14.71 3.07 14.71 1.87 14.68 1.84 8.09 1.84"/>
    <path class="cls-1" d="m40.21,5.74v-2.08c0-.37-.14-.56-.43-.56h-1.43c-.29,0-.43.19-.43.56v2.05c0,.3.11.49.33.56h1.58c.23,0,.36-.17.39-.52m.7-3.9c.58,0,1.1.21,1.57.63.26.28.39.54.39.79v2.96c0,.45-.31.85-.93,1.19-.35.18-.77.27-1.28.27h-3.2c-1.03,0-1.75-.36-2.14-1.09-.06-.18-.09-.35-.09-.53v-2.6c0-.75.49-1.27,1.48-1.55.18-.04.35-.06.49-.06h3.71Z"/>
    <polygon class="cls-1" points="19.38 1.84 19.35 1.87 19.35 7.66 19.38 7.68 25.85 7.68 25.88 7.66 25.88 6.29 25.85 6.26 21.97 6.26 21.97 5.28 25.55 5.28 25.58 5.26 25.58 3.89 25.55 3.86 21.97 3.86 21.97 3.1 25.85 3.1 25.88 3.07 25.88 1.87 25.85 1.84 19.38 1.84"/>
    <path class="cls-1" d="m5.22,3.74l.72-.72v-1.16h-1.16l-.38.38-.34.34c-.14.14-.22.33-.24.52l-.74.74c-.22-.51-.18-1.12.13-1.6.06-.1.14-.2.23-.29l.09-.09H0v3.52l.09-.09c.09-.09.18-.16.29-.23.27-.17.59-.27.92-.27.24,0,.47.05.68.14l-.74.74c-.2.01-.38.1-.52.24L0,6.63v1.16h1.16l.72-.72c.14-.14.22-.31.23-.5l.75-.75c.22.51.17,1.11-.13,1.58-.06.1-.14.2-.23.28l-.09.09h3.53v-3.53l-.09.09s-.05.04-.07.07c-.07.06-.14.12-.22.16-.27.17-.59.27-.92.27-.23,0-.46-.05-.67-.14l.75-.75c.19-.02.36-.1.5-.24m-.75.22l-.67.67-1.01,1.01-.67.67-.2.2c-.17.17-.45.17-.62,0-.17-.17-.17-.45,0-.62l.21-.21.67-.67,1.91-1.91c.17-.17.45-.17.62,0,.17.17.17.45,0,.62l-.22.22Z"/>
  </g>
</svg>