<?xml version="1.0" encoding="UTF-8"?>
<svg id="COLOR" xmlns="http://www.w3.org/2000/svg" viewBox="0 0 34.35 9.98">
  <defs>
    <style>
      .cls-1 {
        fill: #FFF;
      }
    </style>
  </defs>
  <g id="FOSET">
    <g>
      <polygon class="cls-1" points="7.05 2.08 11.27 2.08 11.27 3.28 8.54 3.28 8.54 4.46 10.91 4.46 10.91 5.61 8.54 5.61 8.54 7.83 7.05 7.83 7.05 2.08"/>
      <path class="cls-1" d="m14.71,1.96c1.81,0,2.83,1.33,2.83,2.99s-1.02,2.99-2.83,2.99-2.83-1.33-2.83-2.99,1.02-2.99,2.83-2.99m0,4.69c.97,0,1.33-.85,1.33-1.7s-.37-1.71-1.33-1.71-1.33.85-1.33,1.71.37,1.7,1.33,1.7"/>
      <path class="cls-1" d="m19.65,5.9c.03.67.45.89,1.09.89.45,0,.92-.16.92-.59,0-.51-.82-.6-1.65-.84-.82-.23-1.68-.6-1.68-1.66,0-1.25,1.26-1.74,2.34-1.74,1.14,0,2.29.55,2.3,1.85h-1.5c.02-.52-.47-.69-.92-.69-.32,0-.72.11-.72.49,0,.44.83.52,1.66.75.83.23,1.66.62,1.66,1.66,0,1.46-1.24,1.92-2.5,1.92s-2.49-.58-2.49-2.05h1.5Z"/>
      <polygon class="cls-1" points="23.99 2.08 28.56 2.08 28.56 3.28 25.48 3.28 25.48 4.29 28.3 4.29 28.3 5.45 25.48 5.45 25.48 6.54 28.64 6.54 28.64 7.83 23.99 7.83 23.99 2.08"/>
      <polygon class="cls-1" points="34.35 3.37 32.63 3.37 32.63 7.83 31.14 7.83 31.14 3.37 29.42 3.37 29.42 2.08 34.35 2.08 34.35 3.37"/>
      <path class="cls-1" d="m5.87,6.79c0,.65-.52,1.17-1.17,1.17h-1.5v-.82h.4s.28,0,.59-.31c.21-.2.31-.52.31-.52.01-.04.03-.1.04-.13l.68-2.55s0-.02,0-.02c0,0,0-.01,0-.02,0,0-.01-.01-.02-.01-.02,0-.03,0-.04.02l-1.17,1.15s-.02.03-.02.04c0,.01,0,.03.02.03.01,0,.02,0,.04,0h.21s.03.01.03.03l-.36,1.26s-.03.09-.04.13c0,0,0,.01-.02.03-.04.06-.13.18-.32.18h-.28s-.05-.02-.05-.05v-2.41s.02-.05.05-.05h.19s.04,0,.05-.02c.01-.01.02-.03.02-.05,0,0,0-.02,0-.03l-.54-1.49s-.02-.04-.04-.04c-.02,0-.03.02-.04.04l-.54,1.49s0,.02,0,.03c0,.02,0,.03.02.04.01.01.03.02.05.02h.19s.05.02.05.05v2.41s-.02.05-.05.05h-.28c-.13,0-.21-.06-.26-.11-.03-.03-.04-.05-.06-.08-.01-.02-.02-.03-.02-.03-.01-.03-.03-.09-.04-.13l-.36-1.25s0-.04.03-.04h.21s.03,0,.03,0c.01,0,.02-.02.02-.03,0-.02,0-.03-.02-.04l-1.17-1.15s-.02-.02-.04-.02c0,0-.02,0-.02.01,0,0,0,.01,0,.02,0,0,0,.02,0,.02l.68,2.55s.03.1.04.13c0,0,.1.31.31.52.32.31.55.31.59.31h.4v.82h-1.48C.51,7.96-.01,7.43-.01,6.79v-3.54C-.01,2.6.51,2.08,1.16,2.08h3.54c.65,0,1.17.52,1.17,1.17v3.54Z"/>
    </g>
  </g>
</svg>