<?xml version="1.0" encoding="UTF-8"?>
<svg id="COLOR" xmlns="http://www.w3.org/2000/svg" viewBox="0 0 44.52 10">
  <defs>
    <style>
      .cls-1 {
        fill: #BEBEBE;
      }

      .cls-2 {
        fill: #BEBEBE;
      }
    </style>
  </defs>
  <g id="HERMEX">
    <polygon class="cls-2" points="6.96 1.98 8.78 1.98 8.78 4.03 10.48 4.03 10.48 1.98 12.3 1.98 12.3 7.87 10.48 7.87 10.48 5.54 8.78 5.54 8.78 7.87 6.96 7.87 6.96 1.98"/>
    <polygon class="cls-2" points="13.23 1.98 18.11 1.98 18.11 3.49 15.05 3.49 15.05 4.23 17.83 4.23 17.83 5.63 15.05 5.63 15.05 6.36 18.2 6.36 18.2 7.87 13.23 7.87 13.23 1.98"/>
    <path class="cls-2" d="m19.04,1.98h3.46c1.03,0,1.92.57,1.92,1.69,0,.61-.28,1.25-.89,1.48.5.19.8.73.87,1.47.03.29.03.99.2,1.26h-1.82c-.09-.3-.12-.6-.15-.91-.05-.56-.1-1.15-.82-1.15h-.97v2.06h-1.82V1.98Zm1.82,2.58h.95c.34,0,.8-.06.8-.59,0-.37-.21-.59-.9-.59h-.85v1.17Z"/>
    <polygon class="cls-2" points="25.16 1.98 27.74 1.98 28.58 5.45 28.6 5.45 29.44 1.98 32.03 1.98 32.03 7.87 30.31 7.87 30.31 4.09 30.29 4.09 29.27 7.87 27.91 7.87 26.89 4.09 26.87 4.09 26.87 7.87 25.16 7.87 25.16 1.98"/>
    <polygon class="cls-2" points="32.96 1.98 37.84 1.98 37.84 3.49 34.78 3.49 34.78 4.23 37.56 4.23 37.56 5.63 34.78 5.63 34.78 6.36 37.93 6.36 37.93 7.87 32.96 7.87 32.96 1.98"/>
    <polygon class="cls-2" points="40.33 4.74 38.39 1.98 40.52 1.98 41.41 3.58 42.29 1.98 44.31 1.98 42.41 4.76 44.52 7.87 42.33 7.87 41.32 6.12 40.28 7.87 38.2 7.87 40.33 4.74"/>
    <path class="cls-1" d="m5.94,3.69l-1.66-1.66s-.08-.05-.12-.05H1.82s-.09.02-.12.05L.05,3.69s-.05.08-.05.12v2.34s.02.09.05.12l1.66,1.66s.08.05.12.05h2.34s.09-.02.12-.05l1.66-1.66s.05-.08.05-.12v-2.34s-.02-.09-.05-.12m-2.52,1c0,.16.35,2.48.35,2.48,0,0,.03.13-.11.14-.14,0-1.46,0-1.46,0,0,0-.1-.02-.07-.19.03-.17.41-2.42.41-2.42,0,0,.03-.1-.04-.13-.32-.17-.54-.51-.54-.9,0-.56.45-1.01,1.01-1.01s1.01.45,1.01,1.01c0,.39-.22.74-.55.9-.04.02-.04.08-.03.13"/>
  </g>
</svg>