<?xml version="1.0" encoding="UTF-8"?>
<svg id="COLOR" xmlns="http://www.w3.org/2000/svg" viewBox="0 0 27.85 9.98">
  <defs>
    <style>
      .cls-1 {
        fill: #BEBEBE;
      }

      .cls-2 {
        fill: #BEBEBE;
      }
    </style>
  </defs>
  <g id="KLINTEK">
    <path class="cls-1" d="m.86,6.42l2.74,1.39H0v-.98C0,6.36.28,6.13.86,6.42h0Zm-.03-2.23c-.64.54-.64.85,0,1.37l2.77,2.24V1.85L.83,4.19ZM0,2.83C0,3.3.28,3.53.86,3.24h0s2.74-1.39,2.74-1.39H0v.98Z"/>
    <path class="cls-2" d="m10.53,1.87l-1.66,2.66,1.66,3.26h-1.39l-1.42-3.03h-.02v3.03h-1.24V1.87h1.24v2.53h.02l1.45-2.53h1.36Zm.4,5.92h1.16V1.87h-1.16v5.92Zm1.85,0h1.16V3.65h-1.16v4.14Zm0-5.01h1.16v-.91h-1.16v.91Zm3.95.79c-.21,0-.4.03-.57.11-.16.07-.3.2-.41.39h-.02v-.42h-1.16v4.14h1.16v-2.85c0-.37.07-.66.43-.66s.43.29.43.66v2.85h1.16v-3.32c0-.57-.48-.9-1.03-.9Zm2.94-1.09l-1.16.52v.66h-.47v.71h.47v2.55c0,.25.13.92,1.13.92.28,0,.44-.02.6-.04v-.71c-.06.02-.13.02-.2.02-.38,0-.37-.2-.37-.52v-2.21h.6v-.71h-.6v-1.17Zm4.16,3.43h-2.21c0,.49.02,1.23.52,1.23.41,0,.49-.39.49-.74h1.17c-.02.45-.16.82-.44,1.07-.27.25-.68.4-1.22.4-1.49,0-1.69-.91-1.69-2.21,0-1.13.16-2.1,1.69-2.1s1.73,1.01,1.69,2.34Zm-1.69-1.62c-.53,0-.52.62-.52.98h1.06c0-.4.02-.98-.53-.98Zm5.58-.63h-1.21l-1.04,1.75h-.02V1.87h-1.16v5.92h1.16v-2.25h.02l1.07,2.25h1.3l-1.3-2.3,1.17-1.84Z"/>
  </g>
</svg>