<?xml version="1.0" encoding="UTF-8"?>
<svg id="COLOR" xmlns="http://www.w3.org/2000/svg" viewBox="0 0 35.58 9.86">
  <defs>
    <style>
      .cls-1 {
        fill: #BEBEBE;
      }
    </style>
  </defs>
  <g id="PREETUL">
    <polygon class="cls-1" points="14.38 5.53 16.92 5.53 16.92 4.12 14.38 4.12 14.38 3.25 17.38 3.25 17.38 1.84 12.37 1.84 12.37 7.89 17.5 7.89 17.5 6.48 14.38 6.48 14.38 5.53"/>
    <path class="cls-1" d="m11.48,3.46c0-1.77-2.29-1.61-2.29-1.61h-3.14v6.05h1.95v-2.08h1.01c.76-.03.66,1.23.66,1.23v.85h1.81v-1.33c0-1.18-.98-1.52-.98-1.52,1.06-.27.98-1.58.98-1.58Zm-1.8.57c-.03.17-.17.43-.83.43h-.85v-1.21h.94s.74-.03.74.65c0,0,.01.05,0,.13Z"/>
    <path class="cls-1" d="m2.89,1.84H0v6.05h1.96v-1.88h.99c1.72,0,2.49-.82,2.49-2.12s-.83-2.04-2.55-2.04Zm-.11,2.76h-.81v-1.35h.56c.42,0,1.05.08,1.05.64,0,.52-.33.71-.79.71Z"/>
    <polygon class="cls-1" points="18.06 3.43 19.82 3.43 19.82 7.89 21.78 7.89 21.78 3.43 23.55 3.43 23.55 1.84 18.06 1.84 18.06 3.43"/>
    <path class="cls-1" d="m28.01,5.46c0,.66-.21,1.11-.91,1.11-.81,0-.93-.51-.93-1.11V1.84h-1.96v3.41c0,2.08,1.03,2.8,2.89,2.8,1.99,0,2.88-.85,2.88-2.79V1.84h-1.97v3.62Z"/>
    <polygon class="cls-1" points="32.89 1.84 30.92 1.84 30.92 7.89 35.58 7.89 35.58 6.48 32.89 6.48 32.89 1.84"/>
  </g>
</svg>