<?xml version="1.0" encoding="UTF-8"?>
<svg id="COLOR" xmlns="http://www.w3.org/2000/svg" viewBox="0 0 45.95 9.86">
  <defs>
    <style>
      .cls-1 {
        fill: #2b338c;
      }
    </style>
  </defs>
  <g id="VOLTECK">
    <path class="cls-1" d="m3.64,2.65C4.81,1.28,5.93.07,5.93.07l-.07-.07C1.19,2.61-.7,5.49.23,7c.49.79,2.04.8,3.29.21-1.17,1.37-2.29,2.58-2.29,2.58l.07.07c4.67-2.61,6.56-5.49,5.63-7-.49-.79-2.04-.8-3.29-.21Zm.93,3.29c-1.39.4-3.31-.37-1.99-2.02,1.39-.4,3.31.37,1.99,2.02Z"/>
    <polygon class="cls-1" points="45.7 1.96 44.35 1.96 42.32 4.79 44.55 7.7 45.95 7.7 43.7 4.71 45.7 1.96"/>
    <path class="cls-1" d="m16.87,1.86c-1.68,0-2.69,1.11-2.69,2.97s1,2.96,2.69,2.96,2.68-1.08,2.68-2.96-1-2.97-2.68-2.97Zm0,4.93c-1.18,0-1.43-1.06-1.43-1.96s.25-1.95,1.43-1.95,1.43,1.06,1.43,1.95-.25,1.96-1.43,1.96Z"/>
    <path class="cls-1" d="m21.92,1.96h-1.19v4.68c0,.77.7,1.06,1.14,1.06h2.38v-1.01h-2.32V1.96Z"/>
    <path class="cls-1" d="m35.49,4.86c0,1.81,1.13,2.93,2.94,2.93.5,0,.92-.06,1.36-.2v-1.07l-.04.02c-.44.17-.78.23-1.21.23-1.16,0-1.77-.66-1.77-1.91s.61-1.99,1.72-1.99c.54,0,.79.07,1.21.19l.1.03v-1.05c-.4-.11-.81-.19-1.38-.19-1.78,0-2.93,1.18-2.93,3Z"/>
    <polygon class="cls-1" points="11 6.17 9.64 1.96 8.32 1.96 10.36 7.7 11.6 7.7 13.64 1.96 12.36 1.96 11 6.17"/>
    <path class="cls-1" d="m32.14,1.81c-1.76,0-2.86,1.17-2.86,3.05s1.11,2.97,3.12,2.97c.63,0,1.19-.08,1.67-.24v-1.07h0s-.06.02-.06.02c-.48.18-1,.27-1.54.27-1.23,0-1.81-.52-1.86-1.67h4.03v-.05c.03-.22.04-.41.04-.62,0-1.62-1-2.66-2.54-2.66Zm-1.51,2.45c.13-1.03.63-1.5,1.51-1.5s1.34.72,1.36,1.5h-2.87Z"/>
    <rect class="cls-1" x="40.92" y="1.96" width="1.2" height="5.74"/>
    <polygon class="cls-1" points="24.48 2.96 26.02 2.96 26.02 7.7 27.22 7.7 27.22 2.96 28.76 2.96 28.76 1.96 24.48 1.96 24.48 2.96"/>
  </g>
</svg>